<?xml version="1.0" encoding="UTF-8" standalone="no"?>
<svg
   version="1.0"
   width="228.83289pt"
   height="225.68866pt"
   viewBox="0 0 228.83289 225.68866"
   preserveAspectRatio="xMidYMid"
   id="svg10"
   sodipodi:docname="Logo simple.svg"
   inkscape:version="1.3 (0e150ed6c4, 2023-07-21)"
   xmlns:inkscape="http://www.inkscape.org/namespaces/inkscape"
   xmlns:sodipodi="http://sodipodi.sourceforge.net/DTD/sodipodi-0.dtd"
   xmlns="http://www.w3.org/2000/svg"
   xmlns:svg="http://www.w3.org/2000/svg">
  <defs
     id="defs10" />
  <sodipodi:namedview
     id="namedview10"
     pagecolor="#ffffff"
     bordercolor="#000000"
     borderopacity="0.25"
     inkscape:showpageshadow="2"
     inkscape:pageopacity="0.0"
     inkscape:pagecheckerboard="0"
     inkscape:deskcolor="#d1d1d1"
     inkscape:document-units="pt"
     inkscape:zoom="3.4260528"
     inkscape:cx="168.56132"
     inkscape:cy="158.78331"
     inkscape:window-width="2560"
     inkscape:window-height="1351"
     inkscape:window-x="-9"
     inkscape:window-y="-9"
     inkscape:window-maximized="1"
     inkscape:current-layer="svg10"
     inkscape:lockguides="false">
    <inkscape:page
       x="0"
       y="0"
       width="228.8329"
       height="225.68866"
       id="page7"
       margin="0pt 354.79001pt 122.6pt 0pt"
       bleed="0" />
  </sodipodi:namedview>
  <g
     transform="matrix(0.1,0,0,-0.1,-185.13281,331.56729)"
     fill="#000000"
     stroke="none"
     id="g10"
     style="fill:#000000">
    <path
       d="m 1917,3272 c -16,-17 -17,-106 -17,-1080 0,-1049 0,-1062 20,-1082 19,-19 33,-20 252,-20 128,0 238,4 244,8 32,21 34,52 34,544 0,542 2,563 61,681 42,82 154,194 236,236 269,135 600,33 737,-228 64,-122 66,-139 66,-698 v -502 l 26,-20 c 25,-20 39,-21 255,-21 216,0 230,1 249,20 20,20 20,33 20,1083 0,1018 -1,1065 -18,1080 -17,16 -107,17 -1084,17 -1019,0 -1066,-1 -1081,-18 z m 2063,-637 v -535 h -44 c -48,0 -56,9 -56,65 0,127 -90,335 -207,480 -98,120 -288,240 -443,280 -36,9 -73,25 -83,36 -16,17 -33,19 -147,19 -114,0 -131,-2 -147,-19 -10,-11 -47,-27 -83,-36 -142,-36 -336,-154 -424,-256 -126,-147 -208,-330 -225,-504 l -6,-60 -47,-3 -48,-3 v 535 536 h 980 980 z m -890,273 c 0,-7 -5,-48 -12,-90 l -11,-78 h -67 -67 l -7,63 c -4,34 -10,74 -13,90 l -5,27 h 91 c 66,0 91,-3 91,-12 z m -237,-35 c 3,-5 8,-38 12,-74 l 7,-67 -55,-16 c -30,-9 -59,-16 -65,-16 -9,0 -68,128 -61,134 6,5 92,35 114,39 33,8 44,7 48,0 z m 391,-13 c 36,-12 66,-25 66,-30 0,-19 -53,-130 -62,-130 -6,0 -35,7 -65,16 l -55,16 7,67 c 4,36 9,69 12,74 7,11 26,9 97,-13 z m -578,-129 c 19,-44 25,-66 17,-68 -7,-3 -31,-18 -55,-34 l -43,-29 -48,51 c -26,28 -46,56 -44,63 5,17 130,97 138,88 4,-4 19,-36 35,-71 z m 816,9 37,-26 -52,-57 -52,-57 -52,35 c -29,20 -53,38 -53,39 0,2 14,33 30,70 l 31,67 37,-22 c 20,-12 54,-34 74,-49 z M 2478,2629 c 58,-64 58,-65 16,-117 -21,-26 -39,-48 -40,-50 -1,-2 -32,15 -69,38 -65,42 -66,43 -48,64 25,30 97,106 100,106 2,0 20,-19 41,-41 z m 1173,-51 29,-36 -65,-41 -66,-42 -27,32 c -15,18 -33,41 -40,51 -15,21 -14,24 52,95 l 30,33 29,-28 c 16,-15 42,-43 58,-64 z m -1296,-129 64,-40 -27,-57 c -15,-31 -27,-58 -28,-60 -4,-8 -144,40 -144,48 0,12 61,150 67,150 2,0 32,-18 68,-41 z m 1394,-29 c 17,-39 31,-74 31,-80 0,-8 -140,-56 -144,-48 -16,31 -46,102 -46,111 0,10 104,85 121,86 4,1 20,-31 38,-69 z m -1467,-170 64,-19 -10,-66 -10,-65 h -78 c -76,0 -78,1 -74,23 3,12 8,46 11,76 9,82 5,80 97,51 z m 1529,-20 c 4,-19 9,-56 12,-82 l 5,-48 h -79 -79 l -2,40 c -5,100 -8,93 52,111 73,23 83,20 91,-21 z M 2330,2010 v -30 h -155 -155 v 30 30 h 155 155 z m 1650,0 v -30 h -155 -155 v 30 30 h 155 155 z M 2330,1565 v -355 h -155 -155 v 355 355 h 155 155 z m 1650,0 v -356 l -152,3 -153,3 -3,340 c -1,187 0,346 3,352 3,10 43,13 155,13 h 150 z"
       id="path1"
       style="fill:#000000" />
  </g>
</svg>
