<?xml version="1.0" standalone="no"?>
<!DOCTYPE svg PUBLIC "-//W3C//DTD SVG 20010904//EN"
 "http://www.w3.org/TR/2001/REC-SVG-20010904/DTD/svg10.dtd">
<svg version="1.0" xmlns="http://www.w3.org/2000/svg"
 width="583.000000pt" height="352.000000pt" viewBox="0 0 583.000000 352.000000"
 preserveAspectRatio="xMidYMid meet">

<g transform="translate(0.000000,352.000000) scale(0.100000,-0.100000)"
fill="#000000" stroke="none">
<path d="M1917 3272 c-16 -17 -17 -106 -17 -1080 0 -1049 0 -1062 20 -1082 19
-19 33 -20 252 -20 128 0 238 4 244 8 32 21 34 52 34 544 0 542 2 563 61 681
42 82 154 194 236 236 269 135 600 33 737 -228 64 -122 66 -139 66 -698 l0
-502 26 -20 c25 -20 39 -21 255 -21 216 0 230 1 249 20 20 20 20 33 20 1083 0
1018 -1 1065 -18 1080 -17 16 -107 17 -1084 17 -1019 0 -1066 -1 -1081 -18z
m2063 -637 l0 -535 -44 0 c-48 0 -56 9 -56 65 0 127 -90 335 -207 480 -98 120
-288 240 -443 280 -36 9 -73 25 -83 36 -16 17 -33 19 -147 19 -114 0 -131 -2
-147 -19 -10 -11 -47 -27 -83 -36 -142 -36 -336 -154 -424 -256 -126 -147
-208 -330 -225 -504 l-6 -60 -47 -3 -48 -3 0 535 0 536 980 0 980 0 0 -535z
m-890 273 c0 -7 -5 -48 -12 -90 l-11 -78 -67 0 -67 0 -7 63 c-4 34 -10 74 -13
90 l-5 27 91 0 c66 0 91 -3 91 -12z m-237 -35 c3 -5 8 -38 12 -74 l7 -67 -55
-16 c-30 -9 -59 -16 -65 -16 -9 0 -68 128 -61 134 6 5 92 35 114 39 33 8 44 7
48 0z m391 -13 c36 -12 66 -25 66 -30 0 -19 -53 -130 -62 -130 -6 0 -35 7 -65
16 l-55 16 7 67 c4 36 9 69 12 74 7 11 26 9 97 -13z m-578 -129 c19 -44 25
-66 17 -68 -7 -3 -31 -18 -55 -34 l-43 -29 -48 51 c-26 28 -46 56 -44 63 5 17
130 97 138 88 4 -4 19 -36 35 -71z m816 9 l37 -26 -52 -57 -52 -57 -52 35
c-29 20 -53 38 -53 39 0 2 14 33 30 70 l31 67 37 -22 c20 -12 54 -34 74 -49z
m-1004 -111 c58 -64 58 -65 16 -117 -21 -26 -39 -48 -40 -50 -1 -2 -32 15 -69
38 -65 42 -66 43 -48 64 25 30 97 106 100 106 2 0 20 -19 41 -41z m1173 -51
l29 -36 -65 -41 -66 -42 -27 32 c-15 18 -33 41 -40 51 -15 21 -14 24 52 95
l30 33 29 -28 c16 -15 42 -43 58 -64z m-1296 -129 l64 -40 -27 -57 c-15 -31
-27 -58 -28 -60 -4 -8 -144 40 -144 48 0 12 61 150 67 150 2 0 32 -18 68 -41z
m1394 -29 c17 -39 31 -74 31 -80 0 -8 -140 -56 -144 -48 -16 31 -46 102 -46
111 0 10 104 85 121 86 4 1 20 -31 38 -69z m-1467 -170 l64 -19 -10 -66 -10
-65 -78 0 c-76 0 -78 1 -74 23 3 12 8 46 11 76 9 82 5 80 97 51z m1529 -20 c4
-19 9 -56 12 -82 l5 -48 -79 0 -79 0 -2 40 c-5 100 -8 93 52 111 73 23 83 20
91 -21z m-1481 -220 l0 -30 -155 0 -155 0 0 30 0 30 155 0 155 0 0 -30z m1650
0 l0 -30 -155 0 -155 0 0 30 0 30 155 0 155 0 0 -30z m-1650 -445 l0 -355
-155 0 -155 0 0 355 0 355 155 0 155 0 0 -355z m1650 0 l0 -356 -152 3 -153 3
-3 340 c-1 187 0 346 3 352 3 10 43 13 155 13 l150 0 0 -355z"/>
<path d="M451 748 c-77 -29 -152 -106 -181 -183 -28 -76 -26 -207 5 -270 44
-90 146 -157 268 -177 55 -9 69 -8 118 11 70 26 139 84 123 101 -9 9 -20 8
-44 -5 -50 -26 -137 -30 -204 -11 -44 13 -70 29 -106 65 -61 61 -84 125 -78
224 5 93 28 140 85 173 38 23 52 26 116 22 54 -2 85 -10 124 -31 29 -15 57
-27 63 -27 12 0 40 53 40 75 0 53 -220 75 -329 33z"/>
<path d="M1094 750 c-74 -29 -128 -81 -166 -158 -29 -59 -33 -76 -33 -152 0
-71 4 -94 26 -140 33 -70 89 -126 159 -159 45 -21 69 -25 135 -25 173 1 297
105 324 270 24 154 -43 289 -179 360 -54 28 -200 30 -266 4z m181 -59 c51 -23
101 -79 134 -151 21 -45 25 -70 26 -140 0 -72 -4 -92 -25 -130 -47 -83 -120
-113 -212 -86 -72 21 -121 64 -159 142 -72 146 -43 312 66 372 31 18 125 14
170 -7z"/>
<path d="M2359 702 c-6 -35 -9 -66 -5 -69 3 -4 22 9 42 28 34 33 38 34 112 34
l77 0 3 -246 c2 -234 1 -246 -17 -263 -11 -10 -35 -21 -52 -25 -18 -4 -34 -12
-37 -19 -3 -9 36 -12 163 -12 127 0 166 3 163 12 -3 7 -19 15 -37 19 -17 4
-41 15 -52 25 -18 17 -19 29 -17 263 l3 246 50 3 c70 5 119 -12 134 -44 9 -21
15 -24 24 -15 10 10 35 90 37 116 0 6 -103 10 -289 10 l-290 0 -12 -63z"/>
<path d="M4164 762 c-7 -4 -17 -27 -24 -51 -13 -51 -199 -478 -224 -516 -9
-14 -28 -30 -42 -35 -51 -20 -23 -30 81 -30 84 0 105 3 105 14 0 8 -10 16 -21
18 -31 4 -43 29 -35 71 12 63 23 67 161 67 122 0 125 0 141 -25 9 -14 17 -42
18 -63 1 -29 -4 -39 -21 -47 -13 -5 -23 -15 -23 -22 0 -10 31 -13 125 -13 123
0 155 9 101 30 -34 13 -58 59 -182 352 -91 215 -112 258 -129 258 -11 0 -25
-4 -31 -8z m61 -288 c25 -59 45 -111 45 -115 0 -5 -47 -9 -105 -9 -63 0 -105
4 -105 10 0 9 24 70 85 215 20 46 17 50 80 -101z"/>
<path d="M1635 750 c-3 -5 8 -16 24 -25 17 -8 35 -24 41 -34 13 -25 14 -476 0
-501 -5 -10 -24 -23 -42 -29 -61 -22 -17 -32 125 -29 136 3 174 14 107 30 -60
15 -70 37 -70 149 l0 99 39 0 c56 0 93 -30 191 -155 71 -90 95 -113 132 -129
32 -13 56 -17 82 -12 41 8 48 31 12 40 -15 3 -61 52 -120 126 -60 75 -110 127
-134 139 -31 17 -33 20 -14 21 57 1 126 65 138 126 14 77 -32 149 -115 179
-50 17 -385 22 -396 5z m342 -56 c51 -32 72 -138 38 -190 -22 -33 -53 -44
-131 -44 l-64 0 0 108 c0 59 4 112 8 119 21 33 102 37 149 7z"/>
<path d="M3020 745 c0 -8 7 -15 15 -15 9 0 27 -11 40 -25 l25 -24 0 -234 c0
-257 -1 -262 -61 -282 -19 -7 -34 -17 -34 -24 0 -8 61 -12 233 -12 195 -1 236
2 256 15 28 17 61 97 52 122 -5 13 -12 10 -45 -19 -53 -47 -72 -57 -142 -68
-76 -12 -136 2 -144 34 -3 12 -5 65 -3 117 l3 95 55 -3 c35 -2 65 -10 82 -22
15 -11 32 -20 37 -20 10 0 61 104 61 126 0 10 -11 8 -42 -8 -32 -17 -60 -22
-118 -23 l-75 0 -3 99 c-4 132 3 140 112 134 78 -5 80 -6 112 -44 24 -28 34
-35 38 -24 10 30 26 95 26 108 0 9 -55 12 -240 12 -207 0 -240 -2 -240 -15z"/>
<path d="M4595 750 c-3 -5 8 -16 24 -25 17 -8 35 -24 41 -34 13 -25 14 -476 0
-501 -5 -10 -24 -23 -41 -29 -60 -21 -20 -31 122 -31 112 0 139 3 139 14 0 8
-15 17 -35 20 -51 10 -65 37 -65 126 l0 76 88 0 c127 0 215 44 248 121 17 39
18 126 3 156 -24 46 -74 88 -123 102 -57 17 -391 22 -401 5z m350 -59 c44 -25
68 -74 68 -140 0 -103 -43 -141 -160 -141 l-73 0 0 133 c0 139 6 161 45 170
30 7 86 -3 120 -22z"/>
<path d="M5220 748 c1 -7 15 -22 32 -33 21 -13 35 -32 41 -55 5 -19 7 -130 5
-246 -3 -192 -5 -214 -22 -233 -11 -12 -27 -21 -38 -21 -10 0 -18 -7 -18 -15
0 -13 23 -15 146 -15 107 0 145 3 142 12 -2 6 -22 16 -43 23 -51 14 -65 41
-65 131 l0 70 83 0 c100 0 172 22 214 67 44 46 54 72 54 132 0 94 -39 147
-132 180 -55 20 -399 22 -399 3z m343 -55 c80 -40 101 -175 37 -246 -28 -31
-30 -32 -112 -32 l-83 0 -3 116 c-3 127 6 165 40 179 27 10 82 3 121 -17z"/>
<path d="M3666 229 c-15 -12 -26 -30 -26 -44 0 -24 41 -65 65 -65 23 0 65 41
65 64 0 25 -38 66 -62 66 -8 0 -27 -9 -42 -21z"/>
</g>
</svg>
